<svg xmlns="http://www.w3.org/2000/svg" width="200" height="200" viewBox="0 0 200 200"><defs><style>.cls-1{fill:#f4bc79;}.cls-2{fill:#90beb1;}.cls-3{fill:#231f20;}</style></defs><title>Artboard 6</title><g id="Layer_2" data-name="Layer 2"><path class="cls-1" d="M196.89,100A96.89,96.89,0,1,1,9.58,65.11L100,100Z"/><path class="cls-2" d="M196.89,100H100L9.58,65.11A96.91,96.91,0,0,1,196.89,100Z"/><path class="cls-3" d="M94.22,59.69H92.54V62h2.61a4.36,4.36,0,0,1,.21,1.26,2.47,2.47,0,0,1-.3,1.42,1.27,1.27,0,0,1-1.08.41H84.17A4.36,4.36,0,0,1,84,63.86a2.44,2.44,0,0,1,.32-1.45A1.31,1.31,0,0,1,85.34,62h2.94V59.69H80a3.75,3.75,0,0,1-.36-1.83,4,4,0,0,1,.44-1.9,14.24,14.24,0,0,1,1.12-1.73l3.93-5.16a15.54,15.54,0,0,1,2.37-2.6,3.92,3.92,0,0,1,2.55-.82,5.53,5.53,0,0,1,2.49.51v10.5h2.85a4.28,4.28,0,0,1,.21,1.22C95.6,59.08,95.14,59.69,94.22,59.69Zm-11.07-3h5.13V50Z"/><path class="cls-3" d="M112.64,59a5.79,5.79,0,0,1-2.25,4.84,9.24,9.24,0,0,1-5.85,1.76,11.36,11.36,0,0,1-3.37-.5,7.49,7.49,0,0,1-2.63-1.35,2.46,2.46,0,0,1-1-1.9,2.18,2.18,0,0,1,.54-1.43,3.08,3.08,0,0,1,1.29-.92,6.16,6.16,0,0,0,5.1,2.62,4,4,0,0,0,2.57-.8,2.71,2.71,0,0,0,1-2.26,2.65,2.65,0,0,0-1-2.28,4.14,4.14,0,0,0-2.58-.72,7.75,7.75,0,0,0-2.53.4,8.59,8.59,0,0,0-1.88.86l-1.56-1.45L99,45.79c.88.11,2,.19,3.3.25s2.54.08,3.66.08,2.16,0,3.06-.13a24.14,24.14,0,0,0,2.73-.43,2.74,2.74,0,0,1,.42,1.61,2.54,2.54,0,0,1-.78,2.12,5.07,5.07,0,0,1-3,.62c-.78,0-1.73,0-2.85-.14s-2.18-.19-3.18-.32l-.3,4.33a9.75,9.75,0,0,1,4.23-.87,6.42,6.42,0,0,1,4.56,1.62A5.81,5.81,0,0,1,112.64,59Z"/><path class="cls-3" d="M125.48,50.62a4.73,4.73,0,0,1-1.57,3.7,5.75,5.75,0,0,1-4,1.41,5.14,5.14,0,0,1-3.76-1.37,5,5,0,0,1-1.4-3.7A4.76,4.76,0,0,1,116.32,47a5.65,5.65,0,0,1,3.94-1.39,5.24,5.24,0,0,1,3.81,1.36A4.92,4.92,0,0,1,125.48,50.62Zm-4.17,14.25a1.72,1.72,0,0,1-1.35.73,1.6,1.6,0,0,1-1-.4,4.43,4.43,0,0,1-.87-1q1.59-1.77,3.33-3.86t3.51-4.27q2-2.43,3.57-4.54c1.06-1.39,2-2.58,2.69-3.56s1.24-1.64,1.54-2a1.82,1.82,0,0,1,1.38-.72,1.7,1.7,0,0,1,1,.38,4.12,4.12,0,0,1,.85,1c-1.3,1.46-2.73,3.15-4.3,5s-3,3.71-4.37,5.43c-.7.93-1.37,1.8-2,2.63L123.53,62l-1.35,1.77C121.8,64.3,121.51,64.66,121.31,64.87Zm-3.15-14.21c0,1.79.66,2.7,2,2.7s2-.91,2-2.74a3.27,3.27,0,0,0-.52-2,1.84,1.84,0,0,0-2.9,0A3.44,3.44,0,0,0,118.16,50.66Zm21.15,9.66A4.69,4.69,0,0,1,137.74,64a5.7,5.7,0,0,1-4,1.41A5.14,5.14,0,0,1,130,64.05a4.94,4.94,0,0,1-1.4-3.7,4.76,4.76,0,0,1,1.55-3.71,5.65,5.65,0,0,1,3.94-1.39,5.24,5.24,0,0,1,3.81,1.36A4.91,4.91,0,0,1,139.31,60.32Zm-7.32,0c0,1.8.66,2.69,2,2.69s1.95-.9,1.95-2.72a3.28,3.28,0,0,0-.52-2,1.86,1.86,0,0,0-2.9,0A3.44,3.44,0,0,0,132,60.35Z"/><path class="cls-3" d="M81.59,145a5.79,5.79,0,0,1-2.25,4.84,9.24,9.24,0,0,1-5.85,1.76,11.42,11.42,0,0,1-3.38-.5,7.43,7.43,0,0,1-2.62-1.35,2.46,2.46,0,0,1-1-1.9,2.18,2.18,0,0,1,.54-1.43,3,3,0,0,1,1.29-.91,6.18,6.18,0,0,0,5.1,2.61,4,4,0,0,0,2.56-.8,2.71,2.71,0,0,0,1-2.26,2.66,2.66,0,0,0-1-2.28,4.2,4.2,0,0,0-2.58-.72,7.82,7.82,0,0,0-2.54.4,8.49,8.49,0,0,0-1.87.86l-1.56-1.44L68,131.8q1.32.15,3.3.24t3.66.09c1.14,0,2.16,0,3.06-.14a24.14,24.14,0,0,0,2.73-.43,2.78,2.78,0,0,1,.42,1.62,2.53,2.53,0,0,1-.78,2.11,5.07,5.07,0,0,1-3,.62c-.78,0-1.73,0-2.85-.14s-2.18-.19-3.18-.31l-.3,4.32a9.75,9.75,0,0,1,4.23-.87,6.42,6.42,0,0,1,4.56,1.62A5.81,5.81,0,0,1,81.59,145Z"/><path class="cls-3" d="M98.57,145.69H96.89V148H99.5a4.36,4.36,0,0,1,.21,1.26,2.47,2.47,0,0,1-.3,1.42,1.27,1.27,0,0,1-1.08.41H88.52a4.36,4.36,0,0,1-.21-1.26,2.39,2.39,0,0,1,.31-1.44,1.31,1.31,0,0,1,1.07-.39h2.94v-2.34H84.35a3.75,3.75,0,0,1-.36-1.83,3.93,3.93,0,0,1,.43-1.89,14.46,14.46,0,0,1,1.13-1.74l3.93-5.16a15.54,15.54,0,0,1,2.37-2.6,3.92,3.92,0,0,1,2.55-.82,5.53,5.53,0,0,1,2.49.51v10.5h2.85a4.28,4.28,0,0,1,.21,1.23Q100,145.69,98.57,145.69Zm-11.07-3h5.13V136Z"/><path class="cls-3" d="M112.13,136.63a4.72,4.72,0,0,1-1.58,3.69,5.72,5.72,0,0,1-4,1.41,5.17,5.17,0,0,1-3.77-1.37,4.93,4.93,0,0,1-1.39-3.7A4.76,4.76,0,0,1,103,133a5.67,5.67,0,0,1,4-1.39,5.24,5.24,0,0,1,3.81,1.36A4.93,4.93,0,0,1,112.13,136.63ZM108,150.88a1.74,1.74,0,0,1-1.35.72,1.59,1.59,0,0,1-1-.39,4.49,4.49,0,0,1-.87-1q1.59-1.77,3.33-3.86t3.51-4.27q2-2.43,3.57-4.53t2.68-3.57c.73-1,1.25-1.64,1.55-2a1.82,1.82,0,0,1,1.38-.72,1.6,1.6,0,0,1,1,.39,3.79,3.79,0,0,1,.86,1q-1.95,2.19-4.31,5t-4.36,5.43l-2,2.62L110.18,148l-1.35,1.77C108.45,150.3,108.16,150.66,108,150.88Zm-3.15-14.22q0,2.7,2,2.7t1.95-2.73a3.28,3.28,0,0,0-.53-2,1.85,1.85,0,0,0-2.89,0A3.44,3.44,0,0,0,104.81,136.66ZM126,146.32a4.72,4.72,0,0,1-1.58,3.69,5.72,5.72,0,0,1-4,1.41,5.17,5.17,0,0,1-3.77-1.37,4.93,4.93,0,0,1-1.39-3.7,4.76,4.76,0,0,1,1.54-3.71,5.67,5.67,0,0,1,3.95-1.39,5.24,5.24,0,0,1,3.81,1.36A4.93,4.93,0,0,1,126,146.32Zm-7.32,0q0,2.7,2,2.7t1.95-2.73a3.28,3.28,0,0,0-.53-2,1.85,1.85,0,0,0-2.89,0A3.44,3.44,0,0,0,118.64,146.35Z"/></g></svg>