<svg xmlns="http://www.w3.org/2000/svg" width="200" height="200" viewBox="0 0 200 200"><defs><style>.cls-1{fill:#284376;stroke:#284376;stroke-miterlimit:10;}.cls-2{fill:#f4bc79;}</style></defs><title>Artboard 8</title><g id="Layer_3" data-name="Layer 3"><path class="cls-1" d="M178.26,97.56A77.59,77.59,0,1,1,100.68,20,77.58,77.58,0,0,1,178.26,97.56Z"/><path class="cls-2" d="M88.38,174.85V120.41H68.92V98.08H88.38c1-7.53-2.57-25.65,6.28-37,9.1-11.71,21.76-12.3,40.24-8.71V71.43c-5-.13-13.88-1.51-18.68,2.72C111.73,77.83,113,94.53,112.86,95l0,3H134.1l-3.38,22.53H112.84v54.24A66.17,66.17,0,0,1,100.65,176,66.93,66.93,0,0,1,88.38,174.85Z"/></g></svg>