<svg id="Layer_1" data-name="Layer 1" xmlns="http://www.w3.org/2000/svg" width="200" height="300" viewBox="0 0 200 300"><defs><style>.cls-1{fill:#284376;}.cls-2{fill:#7285a6;}.cls-3{fill:#d6d0ca;}</style></defs><title>Artboard 5</title><path class="cls-1" d="M175.14,55.9V262.7a4,4,0,0,1-1,2.6.34.34,0,0,1-.12.12,3.46,3.46,0,0,1-1.14.87,33.62,33.62,0,0,0-9.55,7,32.57,32.57,0,0,0-5.66,8,4,4,0,0,1-3.19,2.2c-15.94,1.61-33.49,2.66-52.37,2.72a537.16,537.16,0,0,1-56.24-2.76,4,4,0,0,1-2.88-1.7,56.33,56.33,0,0,0-6.73-8,55.41,55.41,0,0,0-9.57-7.56,3.86,3.86,0,0,1-1.1-1l-.05-.09a3.91,3.91,0,0,1-.71-2.26v-203a3.93,3.93,0,0,1,.9-2.52c.88-1.08,1.75-2.23,2.63-3.45a70.33,70.33,0,0,0,8-14.42,4.1,4.1,0,0,0,.29-1.51v-.29a4,4,0,0,1,1.22-2.89l.34-.32a4,4,0,0,0,1.21-2.66l.42-7.56a1,1,0,0,1-1.13-1V20.82a2,2,0,0,1,1.65-2,352.67,352.67,0,0,1,119.37,0,2,2,0,0,1,1.66,2V23.2a1,1,0,0,1-1.17,1c-.09,1.23-.19,2.45-.28,3.67a4.08,4.08,0,0,0,.5,2.27l.43.78a4,4,0,0,1,.52,2v1.51a4,4,0,0,0,.4,1.76A62.9,62.9,0,0,0,172,51.07c.64.7,1.29,1.36,1.93,2A4,4,0,0,1,175.14,55.9Z"/><path class="cls-2" d="M25.57,265.1l.05.09-.76-.09Z"/><path class="cls-2" d="M175.14,265.3l-1.09.12a.34.34,0,0,0,.12-.12Z"/><path class="cls-3" d="M163,172.51c0,42.88-28,77.65-62.56,77.65s-62.56-34.77-62.56-77.65c0-31.22,14.85-58.14,36.26-70.46h0V99.93a3.59,3.59,0,0,0-.72-2.18C68.64,91.61,69,86.68,69.12,85.29,70.21,75.55,82.67,66.37,100,66.65c16.31-1,28.69,7.59,30.27,17.34.88,5.38-1.66,10.25-3.64,13.15A3.62,3.62,0,0,0,126,99.2v2.45C147.77,113.79,163,141,163,172.51Z"/></svg>