<svg xmlns="http://www.w3.org/2000/svg" xmlns:xlink="http://www.w3.org/1999/xlink" width="1920" height="1080" viewBox="0 0 1920 1080">
  <defs>
    <clipPath id="clip-Web_1920_1">
      <rect width="1920" height="1080"/>
    </clipPath>
  </defs>
  <g id="Web_1920_1" data-name="Web 1920 – 1" clip-path="url(#clip-Web_1920_1)">
    <rect width="1920" height="1080" fill="#90beb1"/>
    <g id="Group_12" data-name="Group 12" transform="translate(-225.752 132.291)">
      <path id="Path_20" data-name="Path 20" d="M418.862,193.25,314.992,516.889l-777.76,687.288,305.239,125.748L547.088,636.682,837.431,532.969l57.2-296.411Z" transform="translate(0 149.971)" fill="#f5ac63"/>
      <path id="Path_21" data-name="Path 21" d="M679.349,303.984,523.107,842.547a10.677,10.677,0,0,1-4.463,6.044.918.918,0,0,1-.4.222,9.62,9.62,0,0,1-3.625,1.4,90.85,90.85,0,0,0-30.145,10.963,89.253,89.253,0,0,0-20.839,16.655,10.829,10.829,0,0,1-9.944,3.324c-42.754-7.856-89.227-18.374-138.467-32.488A1456.689,1456.689,0,0,1,170.868,799a10.749,10.749,0,0,1-6.218-6.6A152.681,152.681,0,0,0,153.161,766.5a151.372,151.372,0,0,0-19.212-26.918,10.5,10.5,0,0,1-2.085-3.512l-.089-.279a10.775,10.775,0,0,1-.114-6.416L285.044,200.662a10.775,10.775,0,0,1,4.222-5.89q4.661-3.221,9.455-7a190.807,190.807,0,0,0,31.65-31.531,11.125,11.125,0,0,0,1.9-3.712l.22-.757a10.939,10.939,0,0,1,5.361-6.606l1.128-.575a10.847,10.847,0,0,0,5.16-6.014l6.8-19.369a2.63,2.63,0,0,1-2.207-3.381l1.82-6.275a5.393,5.393,0,0,1,5.787-3.886,956.387,956.387,0,0,1,310.87,90.186,5.393,5.393,0,0,1,2.809,6.378l-1.8,6.2a2.707,2.707,0,0,1-3.769,1.7c-1.163,3.135-2.346,6.237-3.5,9.347a10.8,10.8,0,0,0-.412,6.288c.168.784.361,1.573.529,2.356a10.715,10.715,0,0,1-.152,5.491l-1.141,3.932a10.807,10.807,0,0,0-.26,4.892,169.668,169.668,0,0,0,15.413,46.627c1.139,2.308,2.332,4.518,3.514,6.668A10.743,10.743,0,0,1,679.349,303.984Z" transform="translate(235.308 0)" fill="#123463"/>
      <path id="Path_22" data-name="Path 22" d="M132.579,338.359l.089.279c-.654-.277-1.283-.542-1.912-.811Z" transform="translate(234.503 397.436)" fill="#5a7396"/>
      <path id="Path_23" data-name="Path 23" d="M276.854,380.348c-.968-.168-1.944-.312-2.9-.5a.921.921,0,0,0,.4-.222Z" transform="translate(479.598 468.971)" fill="#5a7396"/>
      <path id="Path_24" data-name="Path 24" d="M501.323,494.8c-32.4,111.671-131.585,181.064-221.562,154.962S143.108,511.946,175.5,400.276c23.586-81.306,82.6-140.194,147.662-156.1l-.052-.014,1.6-5.521a9.75,9.75,0,0,0-.228-6.223c-7.628-19.548-3.07-32.144-1.6-35.645,10.2-24.54,49.582-39.034,94.5-25.213,43.218,9.857,68.981,41.442,65.755,68.035-1.773,14.675-12.067,25.441-19.44,31.488a10.017,10.017,0,0,0-3.224,4.884l-1.849,6.378C506.18,330.413,525.167,412.605,501.323,494.8Z" transform="translate(293.488 103.661)" fill="#e6e2de"/>
      <rect id="Rectangle_26" data-name="Rectangle 26" width="196.552" height="77.107" rx="12" transform="translate(718.541 339.276)" fill="#f5ac63"/>
      <rect id="Rectangle_27" data-name="Rectangle 27" width="196.552" height="77.107" rx="12" transform="translate(695.862 429.939)" fill="#f5ac63"/>
      <rect id="Rectangle_28" data-name="Rectangle 28" width="170.891" height="77.107" rx="12" transform="translate(708.693 525.245)" fill="#f5ac63"/>
      <rect id="Rectangle_29" data-name="Rectangle 29" width="119.237" height="65.079" rx="12" transform="translate(734.52 617.861)" fill="#f5ac63"/>
      <rect id="Rectangle_30" data-name="Rectangle 30" width="217.305" height="102.801" rx="12" transform="translate(412.446 311.321) rotate(-11.373)" fill="#f5ac63"/>
    </g>
    <g id="Group_13" data-name="Group 13" transform="translate(1231.48 237.922)">
      <path id="Path_20-2" data-name="Path 20" d="M13.005,193.25l103.87,323.639,777.76,687.288L589.4,1329.925-115.221,636.682-405.563,532.969l-57.2-296.411Z" transform="translate(483.226 44.34)" fill="#f5ac63"/>
      <path id="Path_21-2" data-name="Path 21" d="M131.663,303.984,287.905,842.547a10.677,10.677,0,0,0,4.463,6.044.918.918,0,0,0,.4.222,9.62,9.62,0,0,0,3.625,1.4,90.85,90.85,0,0,1,30.145,10.963,89.253,89.253,0,0,1,20.839,16.655,10.829,10.829,0,0,0,9.944,3.324c42.754-7.856,89.226-18.374,138.467-32.488A1456.684,1456.684,0,0,0,640.144,799a10.749,10.749,0,0,0,6.218-6.6,152.048,152.048,0,0,1,30.7-52.812,10.5,10.5,0,0,0,2.085-3.512l.089-.279a10.775,10.775,0,0,0,.114-6.416L525.968,200.662a10.775,10.775,0,0,0-4.222-5.89q-4.661-3.221-9.456-7a190.808,190.808,0,0,1-31.65-31.531,11.125,11.125,0,0,1-1.9-3.712l-.22-.757a10.939,10.939,0,0,0-5.361-6.606l-1.128-.575a10.847,10.847,0,0,1-5.16-6.014l-6.8-19.369a2.63,2.63,0,0,0,2.207-3.381l-1.82-6.275a5.393,5.393,0,0,0-5.787-3.886A956.388,956.388,0,0,0,143.8,195.854a5.393,5.393,0,0,0-2.809,6.378l1.8,6.2a2.707,2.707,0,0,0,3.769,1.7c1.163,3.135,2.346,6.237,3.5,9.347a10.8,10.8,0,0,1,.412,6.288c-.168.784-.361,1.573-.529,2.356a10.715,10.715,0,0,0,.152,5.491l1.141,3.932a10.807,10.807,0,0,1,.26,4.892,169.668,169.668,0,0,1-15.413,46.627c-1.139,2.308-2.332,4.518-3.514,6.668A10.743,10.743,0,0,0,131.663,303.984Z" transform="translate(-131.227 -105.632)" fill="#123463"/>
      <path id="Path_22-2" data-name="Path 22" d="M130.846,338.359l-.089.279c.654-.277,1.283-.542,1.912-.811Z" transform="translate(417.164 291.805)" fill="#5a7396"/>
      <path id="Path_23-2" data-name="Path 23" d="M273.95,380.348c.968-.168,1.944-.312,2.9-.5a.921.921,0,0,1-.4-.222Z" transform="translate(-115.309 363.339)" fill="#5a7396"/>
      <path id="Path_24-2" data-name="Path 24" d="M175.5,494.8C207.9,606.469,307.089,675.862,397.067,649.76S533.72,511.946,501.324,400.276c-23.586-81.306-82.6-140.194-147.662-156.1l.052-.014-1.6-5.521a9.75,9.75,0,0,1,.228-6.223c7.628-19.548,3.07-32.144,1.6-35.645-10.2-24.54-49.582-39.034-94.5-25.213-43.218,9.857-68.981,41.442-65.755,68.035,1.773,14.675,12.067,25.441,19.44,31.488a10.017,10.017,0,0,1,3.224,4.884l1.849,6.378C170.648,330.413,151.661,412.605,175.5,494.8Z" transform="translate(-55.222 -1.97)" fill="#e6e2de"/>
      <rect id="Rectangle_26-2" data-name="Rectangle 26" width="196.552" height="77.107" rx="12" transform="translate(0 233.644)" fill="#f5ac63"/>
      <rect id="Rectangle_27-2" data-name="Rectangle 27" width="196.552" height="77.107" rx="12" transform="translate(22.679 324.308)" fill="#f5ac63"/>
      <rect id="Rectangle_28-2" data-name="Rectangle 28" width="170.891" height="77.107" rx="12" transform="translate(35.51 419.613)" fill="#f5ac63"/>
      <rect id="Rectangle_29-2" data-name="Rectangle 29" width="119.237" height="65.079" rx="12" transform="translate(61.337 512.229)" fill="#f5ac63"/>
      <rect id="Rectangle_30-2" data-name="Rectangle 30" width="217.305" height="102.801" rx="12" transform="matrix(-0.98, -0.197, 0.197, -0.98, 482.376, 306.471)" fill="#f5ac63"/>
    </g>
  </g>
</svg>
