<svg xmlns="http://www.w3.org/2000/svg" width="200" height="200" viewBox="0 0 200 200"><defs><style>.cls-1{fill:#284376;stroke:#284376;}.cls-1,.cls-2{stroke-miterlimit:10;}.cls-2{fill:none;stroke:#f3bc79;stroke-width:7px;}</style></defs><title>Artboard 8 copy 2</title><g id="Layer_5" data-name="Layer 5"><rect class="cls-1" x="20.9" y="20.74" width="158.2" height="153.65" rx="25.77"/><path class="cls-2" d="M46.51,123.11c18.22-12.77,23.84-18.84,22.13-23-.25-.62-.82-.42-3.16-1.53-2.18-1-8.74-4.15-9.26-9a7.51,7.51,0,0,1,3.39-6.8,9.32,9.32,0,0,1,8.81,0c.48.24.94.53.94.53a9.22,9.22,0,0,1,1.26.95s0,.05,0,.05c.5,0-1.51-14.16,3.16-23.68,4.12-8.4,14.81-16,26.84-15.5a29.64,29.64,0,0,1,24.65,15.72c5.36,10.69,2,24.56,3.4,24.69.47,0,.52-1.44,2-2.76,2.21-2,6.54-2.55,9.93-.44a7.07,7.07,0,0,1,3.16,6.58c-.29,2.31-1.92,3.77-3.84,5.48-4.28,3.84-7.64,3.82-8.35,6.36-.4,1.43.25,2.93,1.58,4.83,7.16,10.19,19.29,10.68,20.32,17.54a6.71,6.71,0,0,1-1.13,4.82c-2.72,3.5-8.27,1.13-12,4.83-2.19,2.2-.82,3.63-2.93,5.7-3.11,3-7.31,1.15-14,2.41-6.52,1.23-5.61,3.61-13.1,5.92-2.71.84-11.11,3.32-19.87.44-5.9-1.94-4.75-3.94-10.38-5.48-8.1-2.22-13.9,1-17.16-2.63-1.49-1.66-.47-2.53-2.26-4.61-2.67-3.09-5.88-2.25-9.48-4.82C49.43,128.39,44.27,124.69,46.51,123.11Z"/></g></svg>